<svg id="Calque_1" data-name="Calque 1" xmlns="http://www.w3.org/2000/svg" viewBox="0 0 210 297"><defs><style>.cls-1{fill:#579442;}</style></defs><g id="qJlNl7.tif"><path class="cls-1" d="M95.5,268.1c-20.7-1.8-38.3-8.3-54-19.7C20,232.9,6,212.2,1.4,185.9-7.4,134.8,26,92.1,64.3,79.2c0,2.8.1,5.6,0,8.3-.6,10.6-1.8,21.3-1.9,31.9a80.4,80.4,0,0,0,10.9,42.2c7.1,12.5,14.1,25.1,17.6,39.1,4.1,16.3,6.4,32.7,4.7,49.6C95,255.8,95.5,261.5,95.5,268.1Z"/><path class="cls-1" d="M114.8,268.1c-.1-13.8-.5-26.6-.2-39.4.8-24.9,10.1-47,22.7-68,9-15,10.9-31.5,10-48.6-.5-10.3-1.1-20.6-1.7-30.9V78.7A98,98,0,0,1,183.8,104c19.7,21,28.4,46.3,25.7,74.9s-15.5,49.3-36.7,66.3C156.2,258.5,137.3,266,114.8,268.1Z"/><path class="cls-1" d="M100,76.5c0-14.5.1-29-.1-43.5,0-3.8,1.7-4.3,4.7-4.1s5.7-.8,5.6,3.9c-.1,29.3-.1,58.5,0,87.8.1,4.6-2.6,3.9-5.4,4.1s-4.9-.4-4.9-4.3C100.1,105.8,100,91.1,100,76.5Z"/><path class="cls-1" d="M87.8,30.7v92c-.5.1-.8.3-1,.2-10.5-2-8.7-.5-8.7-10-.1-24.6,0-49.1,0-73.7C78.1,30.7,78.6,30.2,87.8,30.7Z"/><path class="cls-1" d="M122.4,30.4c2.8.3,5.3.3,7.7,1.1s1.9,2.1,1.9,3.3c.3,5.3.2,10.6.2,15.9v64.8c0,5.9-.1,5.9-6,6.9l-3.8.6Z"/></g></svg>